<svg width="240" height="240" viewBox="0 0 240 240" fill="none" xmlns="http://www.w3.org/2000/svg">
<path d="M44 55C44 49.4772 48.4772 45 54 45H186C191.523 45 196 49.4772 196 55V154.747C196 158.297 194.118 161.581 191.055 163.375L125.055 202.039C121.933 203.868 118.067 203.868 114.945 202.039L48.9453 163.375C45.8822 161.581 44 158.297 44 154.747V55Z" fill="url(#paint0_linear_1_350)"/>
<g filter="url(#filter0_i_1_350)">
<path d="M67 71C67 68.2386 69.2386 66 72 66H168C170.761 66 173 68.2386 173 71V143.381C173 145.112 172.105 146.72 170.633 147.631L122.633 177.369C121.02 178.368 118.98 178.368 117.367 177.369L69.3668 147.631C67.8953 146.72 67 145.112 67 143.381V71Z" fill="url(#paint1_radial_1_350)"/>
<path d="M67 71C67 68.2386 69.2386 66 72 66H168C170.761 66 173 68.2386 173 71V143.381C173 145.112 172.105 146.72 170.633 147.631L122.633 177.369C121.02 178.368 118.98 178.368 117.367 177.369L69.3668 147.631C67.8953 146.72 67 145.112 67 143.381V71Z" fill="url(#paint2_radial_1_350)" fill-opacity="0.29"/>
<path d="M67 71C67 68.2386 69.2386 66 72 66H168C170.761 66 173 68.2386 173 71V143.381C173 145.112 172.105 146.72 170.633 147.631L122.633 177.369C121.02 178.368 118.98 178.368 117.367 177.369L69.3668 147.631C67.8953 146.72 67 145.112 67 143.381V71Z" fill="url(#paint3_linear_1_350)" fill-opacity="0.2"/>
</g>
<path d="M168 62C172.971 62 177 66.0294 177 71V143.381C177 146.497 175.389 149.391 172.74 151.032L124.74 180.769C121.836 182.568 118.164 182.568 115.26 180.769L67.2598 151.032C64.6112 149.391 63 146.497 63 143.381V71C63 66.0294 67.0294 62 72 62H168Z" stroke="url(#paint4_linear_1_350)" stroke-width="8"/>
<path opacity="0.74" d="M168 57.5C175.456 57.5 181.5 63.5442 181.5 71V143.301C181.5 147.964 179.094 152.296 175.136 154.761L127.136 184.646C122.768 187.366 117.232 187.366 112.864 184.646L64.8643 154.761C60.9061 152.296 58.5 147.964 58.5 143.301V71C58.5 63.5442 64.5442 57.5 72 57.5H168Z" stroke="url(#paint5_linear_1_350)"/>
<mask id="mask0_1_350" style="mask-type:alpha" maskUnits="userSpaceOnUse" x="67" y="66" width="106" height="113">
<path d="M67 71C67 68.2386 69.2386 66 72 66H168C170.761 66 173 68.2386 173 71V143.381C173 145.112 172.105 146.72 170.633 147.631L122.633 177.369C121.02 178.368 118.98 178.368 117.367 177.369L69.3668 147.631C67.8953 146.72 67 145.112 67 143.381V71Z" fill="#D9D9D9"/>
</mask>
<g mask="url(#mask0_1_350)">
<g filter="url(#filter1_di_1_350)">
<path fill-rule="evenodd" clip-rule="evenodd" d="M118.31 89.6651L99.4051 101.139L106.674 106.416L118.466 98.9256C119.453 98.2991 120.704 98.2991 121.691 98.9256L133.595 106.487L141.488 101.474L122.036 89.6651C121.465 89.3481 120.824 89.1818 120.173 89.1818C119.522 89.1818 118.882 89.3481 118.31 89.6651ZM144.071 107.123L136.637 111.845V123.869C136.637 124.935 136.097 125.925 135.207 126.49L123.12 134.168V143.527L141.991 131.24C142.044 131.205 142.097 131.173 142.152 131.142C143.336 130.472 144.071 129.202 144.071 127.822V107.123ZM117.037 143.531V134.168L104.95 126.49C104.06 125.925 103.52 124.935 103.52 123.869L103.52 111.723L96.083 106.324V127.825C96.083 127.825 96.083 127.825 96.083 127.826C96.0833 128.502 96.2612 129.166 96.5982 129.749C96.9353 130.332 97.4195 130.814 98.0008 131.143C98.0547 131.174 98.1076 131.206 98.1595 131.24L117.037 143.531ZM94.996 96.6143L115.234 84.3316C115.26 84.3164 115.285 84.3016 115.31 84.2872C116.796 83.4431 118.471 83 120.173 83C121.876 83 123.55 83.4431 125.036 84.2872C125.062 84.3017 125.087 84.3166 125.112 84.3318L145.387 96.6402C145.577 96.7552 145.75 96.8885 145.906 97.037C147.207 97.9499 148.283 99.1775 149.021 100.602C149.775 102.055 150.164 103.676 150.154 105.322V127.822C150.154 131.408 148.263 134.717 145.2 136.492L124.997 149.646C124.943 149.681 124.889 149.714 124.833 149.746C123.414 150.547 121.822 150.976 120.2 150.998C120.16 150.999 120.119 151 120.079 151C120.039 151 119.999 150.999 119.96 150.998C118.335 150.978 116.739 150.548 115.317 149.746C115.262 149.714 115.207 149.681 115.153 149.646L94.9485 136.491C93.461 135.627 92.2212 134.382 91.3529 132.879C90.4675 131.347 90.0005 129.603 90 127.826V105.311C90 101.706 91.9078 98.3806 94.996 96.6143ZM109.603 111.845V118.868L117.037 115.091V107.123L109.603 111.845ZM123.12 107.123V115.091L130.554 118.868V111.845L123.12 107.123ZM127.385 124.169L120.079 120.457L112.772 124.169L120.079 128.81L127.385 124.169Z" fill="url(#paint6_radial_1_350)" shape-rendering="crispEdges"/>
<path d="M120.173 80.5C122.31 80.5 124.409 81.0564 126.271 82.1133C126.317 82.1397 126.363 82.1665 126.409 82.1943L146.685 94.5029C146.97 94.676 147.234 94.8739 147.479 95.0898C149.048 96.2233 150.344 97.7209 151.241 99.4521C152.179 101.262 152.664 103.277 152.653 105.322V127.822C152.653 132.251 150.335 136.361 146.541 138.602L126.361 151.741C126.264 151.805 126.163 151.865 126.062 151.923C124.279 152.929 122.275 153.471 120.232 153.497L120.231 153.496C120.18 153.498 120.129 153.5 120.078 153.5C120.006 153.5 119.934 153.499 119.862 153.496V153.495C117.839 153.46 115.856 152.92 114.089 151.923L113.789 151.741L93.6025 138.598C91.7755 137.515 90.2556 135.977 89.1885 134.131C88.0825 132.217 87.5006 130.041 87.5 127.827V105.311C87.5 100.846 89.8533 96.6995 93.7051 94.4727L113.938 82.1943C113.983 82.1667 114.029 82.1396 114.075 82.1133C115.936 81.0564 118.036 80.5 120.173 80.5ZM98.583 127.824C98.5831 128.064 98.6462 128.296 98.7627 128.498C98.8791 128.699 99.0435 128.861 99.2344 128.969C99.3325 129.024 99.4289 129.083 99.5234 129.145L114.537 138.919V135.542L103.609 128.601C101.988 127.571 101.021 125.778 101.021 123.869V112.997L98.583 111.228V127.824ZM139.137 113.219V123.869C139.137 125.778 138.169 127.571 136.548 128.601L125.62 135.541V138.915L140.627 129.145C140.723 129.082 140.822 129.022 140.922 128.966C141.308 128.747 141.57 128.316 141.57 127.822V111.673L139.137 113.219ZM117.815 124.41L120.078 125.848L122.341 124.41L120.078 123.261L117.815 124.41ZM112.104 113.219V114.793L114.537 113.556V111.673L112.104 113.219ZM125.62 113.556L128.054 114.793V113.219L125.62 111.673V113.556ZM120.173 91.6816C119.956 91.6817 119.741 91.735 119.546 91.8389L103.917 101.324L106.769 103.394L117.126 96.8154C118.93 95.6693 121.227 95.6693 123.031 96.8154L133.595 103.525L136.749 101.521L120.806 91.8428C120.609 91.7368 120.392 91.6816 120.173 91.6816Z" stroke="white" stroke-opacity="0.8" stroke-width="5" stroke-linejoin="round" shape-rendering="crispEdges"/>
</g>
</g>
<defs>
<filter id="filter0_i_1_350" x="59" y="58" width="122" height="128.118" filterUnits="userSpaceOnUse" color-interpolation-filters="sRGB">
<feFlood flood-opacity="0" result="BackgroundImageFix"/>
<feBlend mode="normal" in="SourceGraphic" in2="BackgroundImageFix" result="shape"/>
<feColorMatrix in="SourceAlpha" type="matrix" values="0 0 0 0 0 0 0 0 0 0 0 0 0 0 0 0 0 0 127 0" result="hardAlpha"/>
<feOffset/>
<feGaussianBlur stdDeviation="22.5"/>
<feComposite in2="hardAlpha" operator="arithmetic" k2="-1" k3="1"/>
<feColorMatrix type="matrix" values="0 0 0 0 0.23559 0 0 0 0 0.238151 0 0 0 0 0.245833 0 0 0 1 0"/>
<feBlend mode="normal" in2="shape" result="effect1_innerShadow_1_350"/>
</filter>
<filter id="filter1_di_1_350" x="82" y="78" width="76.1538" height="85" filterUnits="userSpaceOnUse" color-interpolation-filters="sRGB">
<feFlood flood-opacity="0" result="BackgroundImageFix"/>
<feColorMatrix in="SourceAlpha" type="matrix" values="0 0 0 0 0 0 0 0 0 0 0 0 0 0 0 0 0 0 127 0" result="hardAlpha"/>
<feOffset dy="4"/>
<feGaussianBlur stdDeviation="1.5"/>
<feComposite in2="hardAlpha" operator="out"/>
<feColorMatrix type="matrix" values="0 0 0 0 0 0 0 0 0 0 0 0 0 0 0 0 0 0 0.25 0"/>
<feBlend mode="normal" in2="BackgroundImageFix" result="effect1_dropShadow_1_350"/>
<feBlend mode="normal" in="SourceGraphic" in2="effect1_dropShadow_1_350" result="shape"/>
<feColorMatrix in="SourceAlpha" type="matrix" values="0 0 0 0 0 0 0 0 0 0 0 0 0 0 0 0 0 0 127 0" result="hardAlpha"/>
<feOffset dx="1" dy="2"/>
<feGaussianBlur stdDeviation="7"/>
<feComposite in2="hardAlpha" operator="arithmetic" k2="-1" k3="1"/>
<feColorMatrix type="matrix" values="0 0 0 0 0.205833 0 0 0 0 0.209444 0 0 0 0 0.216667 0 0 0 1 0"/>
<feBlend mode="normal" in2="shape" result="effect2_innerShadow_1_350"/>
</filter>
<linearGradient id="paint0_linear_1_350" x1="53" y1="45" x2="128.5" y2="199.5" gradientUnits="userSpaceOnUse">
<stop stop-color="#ECEFF7"/>
<stop offset="1" stop-color="#B5B5B6"/>
</linearGradient>
<radialGradient id="paint1_radial_1_350" cx="0" cy="0" r="1" gradientUnits="userSpaceOnUse" gradientTransform="translate(120 125) rotate(90) scale(91.9039 87.2308)">
<stop stop-color="#9B9DA2"/>
<stop offset="1" stop-color="#67676A"/>
</radialGradient>
<radialGradient id="paint2_radial_1_350" cx="0" cy="0" r="1" gradientTransform="matrix(41.4615 -42.5481 21.4349 23.1854 95.2308 103.442)" gradientUnits="userSpaceOnUse">
<stop stop-color="white"/>
<stop offset="1" stop-color="white" stop-opacity="0"/>
</radialGradient>
<linearGradient id="paint3_linear_1_350" x1="120" y1="66" x2="120" y2="184" gradientUnits="userSpaceOnUse">
<stop stop-opacity="0"/>
<stop offset="1"/>
</linearGradient>
<linearGradient id="paint4_linear_1_350" x1="120" y1="66" x2="120" y2="184" gradientUnits="userSpaceOnUse">
<stop stop-color="#ACACAC"/>
<stop offset="1" stop-color="#DFE3EA"/>
</linearGradient>
<linearGradient id="paint5_linear_1_350" x1="86" y1="53.5" x2="138.5" y2="186.5" gradientUnits="userSpaceOnUse">
<stop stop-color="#FBFCFF"/>
<stop offset="1" stop-color="#D4D6D9"/>
</linearGradient>
<radialGradient id="paint6_radial_1_350" cx="0" cy="0" r="1" gradientTransform="matrix(-41.3635 40.889 -178.673 -12.4932 128.882 89.792)" gradientUnits="userSpaceOnUse">
<stop stop-color="#ABABB8"/>
<stop offset="1" stop-color="#6E6D7A"/>
</radialGradient>
</defs>
</svg>
