<svg width="240" height="240" viewBox="0 0 240 240" fill="none" xmlns="http://www.w3.org/2000/svg">
<path d="M113.611 33.3101C116.941 31.3676 121.059 31.3676 124.389 33.31L190.694 71.9883C193.98 73.9048 196 77.4223 196 81.2259V158.774C196 162.578 193.98 166.095 190.694 168.012L124.389 206.69C121.059 208.632 116.941 208.632 113.611 206.69L47.3058 168.012C44.0203 166.095 42 162.578 42 158.774V81.2259C42 77.4223 44.0203 73.9048 47.3058 71.9883L113.611 33.3101Z" fill="url(#paint0_linear_1_412)"/>
<g filter="url(#filter0_i_1_412)">
<path d="M116.3 62.7606C117.968 61.7846 120.032 61.7846 121.7 62.7606L166.617 89.0416C168.256 90.0008 169.264 91.7575 169.264 93.6568V146.343C169.264 148.242 168.256 149.999 166.617 150.958L121.7 177.239C120.032 178.215 117.968 178.215 116.3 177.239L71.3829 150.958C69.7436 149.999 68.7361 148.242 68.7361 146.343V93.6569C68.7361 91.7575 69.7436 90.0008 71.3829 89.0416L116.3 62.7606Z" fill="url(#paint1_radial_1_412)"/>
<path d="M116.3 62.7606C117.968 61.7846 120.032 61.7846 121.7 62.7606L166.617 89.0416C168.256 90.0008 169.264 91.7575 169.264 93.6568V146.343C169.264 148.242 168.256 149.999 166.617 150.958L121.7 177.239C120.032 178.215 117.968 178.215 116.3 177.239L71.3829 150.958C69.7436 149.999 68.7361 148.242 68.7361 146.343V93.6569C68.7361 91.7575 69.7436 90.0008 71.3829 89.0416L116.3 62.7606Z" fill="url(#paint2_radial_1_412)" fill-opacity="0.29"/>
<path d="M116.3 62.7606C117.968 61.7846 120.032 61.7846 121.7 62.7606L166.617 89.0416C168.256 90.0008 169.264 91.7575 169.264 93.6568V146.343C169.264 148.242 168.256 149.999 166.617 150.958L121.7 177.239C120.032 178.215 117.968 178.215 116.3 177.239L71.3829 150.958C69.7436 149.999 68.7361 148.242 68.7361 146.343V93.6569C68.7361 91.7575 69.7436 90.0008 71.3829 89.0416L116.3 62.7606Z" fill="url(#paint3_linear_1_412)" fill-opacity="0.2" style="mix-blend-mode:multiply"/>
</g>
<path d="M114.139 59.0682C117.142 57.3116 120.859 57.3115 123.861 59.0682L168.777 85.3495C171.728 87.076 173.542 90.2383 173.542 93.6571V146.343C173.542 149.761 171.728 152.924 168.777 154.65L123.861 180.932C120.859 182.688 117.142 182.688 114.139 180.932L69.2224 154.65C66.2718 152.924 64.4587 149.761 64.4587 146.343V93.6571C64.4587 90.2384 66.2717 87.076 69.2224 85.3495L114.139 59.0682Z" stroke="url(#paint4_linear_1_412)" stroke-width="8.55556"/>
<path opacity="0.42" d="M111.739 55.161C116.227 52.5497 121.772 52.5497 126.261 55.161L171.178 81.2948C175.621 83.8801 178.354 88.6328 178.354 93.7733V146.226C178.354 151.367 175.621 156.12 171.178 158.705L126.261 184.839C121.772 187.45 116.227 187.45 111.739 184.839L66.8231 158.705C62.3797 156.12 59.6454 151.367 59.6454 146.226V93.7733C59.6455 88.6326 62.3798 83.88 66.8231 81.2948L111.739 55.161Z" stroke="url(#paint5_linear_1_412)" stroke-width="1.06944"/>
<mask id="mask0_1_412" style="mask-type:alpha" maskUnits="userSpaceOnUse" x="68" y="62" width="102" height="116">
<path d="M116.3 62.7606C117.968 61.7846 120.032 61.7846 121.7 62.7606L166.617 89.0416C168.256 90.0008 169.264 91.7575 169.264 93.6568V146.343C169.264 148.242 168.256 149.999 166.617 150.958L121.7 177.239C120.032 178.215 117.968 178.215 116.3 177.239L71.3829 150.958C69.7436 149.999 68.7361 148.242 68.7361 146.343V93.6569C68.7361 91.7575 69.7436 90.0008 71.3829 89.0416L116.3 62.7606Z" fill="#D9D9D9"/>
</mask>
<g mask="url(#mask0_1_412)">
<g filter="url(#filter1_di_1_412)">
<path fill-rule="evenodd" clip-rule="evenodd" d="M117.31 91.6651L98.4051 103.139L105.674 108.416L117.466 100.926C118.453 100.299 119.704 100.299 120.691 100.926L132.595 108.487L140.488 103.474L121.036 91.6651C120.465 91.3481 119.824 91.1818 119.173 91.1818C118.522 91.1818 117.882 91.3481 117.31 91.6651ZM143.071 109.123L135.637 113.845V125.869C135.637 126.935 135.097 127.925 134.207 128.49L122.12 136.168V145.527L140.991 133.24C141.044 133.205 141.097 133.173 141.152 133.142C142.336 132.472 143.071 131.202 143.071 129.822V109.123ZM116.037 145.531V136.168L103.95 128.49C103.06 127.925 102.52 126.935 102.52 125.869L102.52 113.723L95.083 108.324V129.825C95.083 129.825 95.083 129.825 95.083 129.826C95.0833 130.502 95.2612 131.166 95.5982 131.749C95.9353 132.332 96.4195 132.814 97.0008 133.143C97.0547 133.174 97.1076 133.206 97.1595 133.24L116.037 145.531ZM93.996 98.6143L114.234 86.3316C114.26 86.3164 114.285 86.3016 114.31 86.2872C115.796 85.4431 117.471 85 119.173 85C120.876 85 122.55 85.4431 124.036 86.2872C124.062 86.3017 124.087 86.3166 124.112 86.3318L144.387 98.6402C144.577 98.7552 144.75 98.8885 144.906 99.037C146.207 99.9499 147.283 101.177 148.021 102.602C148.775 104.055 149.164 105.676 149.154 107.322V129.822C149.154 133.408 147.263 136.717 144.2 138.492L123.997 151.646C123.943 151.681 123.889 151.714 123.833 151.746C122.414 152.547 120.822 152.976 119.2 152.998C119.16 152.999 119.119 153 119.079 153C119.039 153 118.999 152.999 118.96 152.998C117.335 152.978 115.739 152.548 114.317 151.746C114.262 151.714 114.207 151.681 114.153 151.646L93.9485 138.491C92.461 137.627 91.2212 136.382 90.3529 134.879C89.4675 133.347 89.0005 131.603 89 129.826V107.311C89 103.706 90.9078 100.381 93.996 98.6143ZM108.603 113.845V120.868L116.037 117.091V109.123L108.603 113.845ZM122.12 109.123V117.091L129.554 120.868V113.845L122.12 109.123ZM126.385 126.169L119.079 122.457L111.772 126.169L119.079 130.81L126.385 126.169Z" fill="url(#paint6_radial_1_412)" shape-rendering="crispEdges"/>
<path d="M119.173 82.5C121.31 82.5 123.409 83.0564 125.271 84.1133C125.317 84.1397 125.363 84.1665 125.409 84.1943L145.685 96.5029C145.97 96.676 146.234 96.8739 146.479 97.0898C148.048 98.2233 149.344 99.7209 150.241 101.452C151.179 103.262 151.664 105.277 151.653 107.322V129.822C151.653 134.251 149.335 138.361 145.541 140.602L125.361 153.741C125.264 153.805 125.163 153.865 125.062 153.923C123.279 154.929 121.275 155.471 119.232 155.497L119.231 155.496C119.18 155.498 119.129 155.5 119.078 155.5C119.006 155.5 118.934 155.499 118.862 155.496V155.495C116.839 155.46 114.856 154.92 113.089 153.923L112.789 153.741L92.6025 140.598C90.7755 139.515 89.2556 137.977 88.1885 136.131C87.0825 134.217 86.5006 132.041 86.5 129.827V107.311C86.5 102.846 88.8533 98.6995 92.7051 96.4727L112.938 84.1943C112.983 84.1667 113.029 84.1396 113.075 84.1133C114.936 83.0564 117.036 82.5 119.173 82.5ZM97.583 129.824C97.5831 130.064 97.6462 130.296 97.7627 130.498C97.8791 130.699 98.0435 130.861 98.2344 130.969C98.3325 131.024 98.4289 131.083 98.5234 131.145L113.537 140.919V137.542L102.609 130.601C100.988 129.571 100.021 127.778 100.021 125.869V114.997L97.583 113.228V129.824ZM138.137 115.219V125.869C138.137 127.778 137.169 129.571 135.548 130.601L124.62 137.541V140.915L139.627 131.145C139.723 131.082 139.822 131.022 139.922 130.966C140.308 130.747 140.57 130.316 140.57 129.822V113.673L138.137 115.219ZM116.815 126.41L119.078 127.848L121.341 126.41L119.078 125.261L116.815 126.41ZM111.104 115.219V116.793L113.537 115.556V113.673L111.104 115.219ZM124.62 115.556L127.054 116.793V115.219L124.62 113.673V115.556ZM119.173 93.6816C118.956 93.6817 118.741 93.735 118.546 93.8389L102.917 103.324L105.769 105.394L116.126 98.8154C117.93 97.6693 120.227 97.6693 122.031 98.8154L132.595 105.525L135.749 103.521L119.806 93.8428C119.609 93.7368 119.392 93.6816 119.173 93.6816Z" stroke="#F0E1FF" stroke-opacity="0.9" stroke-width="5" stroke-linejoin="round" shape-rendering="crispEdges"/>
</g>
</g>
<defs>
<filter id="filter0_i_1_412" x="60.1805" y="53.473" width="117.639" height="133.054" filterUnits="userSpaceOnUse" color-interpolation-filters="sRGB">
<feFlood flood-opacity="0" result="BackgroundImageFix"/>
<feBlend mode="normal" in="SourceGraphic" in2="BackgroundImageFix" result="shape"/>
<feColorMatrix in="SourceAlpha" type="matrix" values="0 0 0 0 0 0 0 0 0 0 0 0 0 0 0 0 0 0 127 0" result="hardAlpha"/>
<feOffset/>
<feGaussianBlur stdDeviation="24.0625"/>
<feComposite in2="hardAlpha" operator="arithmetic" k2="-1" k3="1"/>
<feColorMatrix type="matrix" values="0 0 0 0 0.203922 0 0 0 0 0.176471 0 0 0 0 0.478431 0 0 0 1 0"/>
<feBlend mode="normal" in2="shape" result="effect1_innerShadow_1_412"/>
</filter>
<filter id="filter1_di_1_412" x="81" y="80" width="76.1538" height="85" filterUnits="userSpaceOnUse" color-interpolation-filters="sRGB">
<feFlood flood-opacity="0" result="BackgroundImageFix"/>
<feColorMatrix in="SourceAlpha" type="matrix" values="0 0 0 0 0 0 0 0 0 0 0 0 0 0 0 0 0 0 127 0" result="hardAlpha"/>
<feOffset dy="4"/>
<feGaussianBlur stdDeviation="1.5"/>
<feComposite in2="hardAlpha" operator="out"/>
<feColorMatrix type="matrix" values="0 0 0 0 0 0 0 0 0 0 0 0 0 0 0 0 0 0 0.25 0"/>
<feBlend mode="normal" in2="BackgroundImageFix" result="effect1_dropShadow_1_412"/>
<feBlend mode="normal" in="SourceGraphic" in2="effect1_dropShadow_1_412" result="shape"/>
<feColorMatrix in="SourceAlpha" type="matrix" values="0 0 0 0 0 0 0 0 0 0 0 0 0 0 0 0 0 0 127 0" result="hardAlpha"/>
<feOffset dx="1" dy="2"/>
<feGaussianBlur stdDeviation="7"/>
<feComposite in2="hardAlpha" operator="arithmetic" k2="-1" k3="1"/>
<feColorMatrix type="matrix" values="0 0 0 0 0.215686 0 0 0 0 0.184314 0 0 0 0 0.482353 0 0 0 1 0"/>
<feBlend mode="normal" in2="shape" result="effect2_innerShadow_1_412"/>
</filter>
<linearGradient id="paint0_linear_1_412" x1="71.4097" y1="42.4653" x2="140.924" y2="200.743" gradientUnits="userSpaceOnUse">
<stop stop-color="#CE9CFF"/>
<stop offset="1" stop-color="#8058CB"/>
</linearGradient>
<radialGradient id="paint1_radial_1_412" cx="0" cy="0" r="1" gradientUnits="userSpaceOnUse" gradientTransform="translate(119 122.603) rotate(90) scale(95.6767 82.7275)">
<stop stop-color="#534BA2"/>
<stop offset="1" stop-color="#312974"/>
</radialGradient>
<radialGradient id="paint2_radial_1_412" cx="0" cy="0" r="1" gradientTransform="matrix(39.3211 -44.2948 20.3283 24.1372 95.5094 100.16)" gradientUnits="userSpaceOnUse">
<stop stop-color="white"/>
<stop offset="1" stop-color="white" stop-opacity="0"/>
</radialGradient>
<linearGradient id="paint3_linear_1_412" x1="119" y1="61.1805" x2="119" y2="184.025" gradientUnits="userSpaceOnUse">
<stop stop-color="#765913" stop-opacity="0"/>
<stop offset="0.0001" stop-color="#30297A" stop-opacity="0"/>
<stop offset="1" stop-color="#30297A"/>
</linearGradient>
<linearGradient id="paint4_linear_1_412" x1="119" y1="61.1805" x2="119" y2="184.025" gradientUnits="userSpaceOnUse">
<stop stop-color="#966FD6"/>
<stop offset="1" stop-color="#C696F9"/>
</linearGradient>
<linearGradient id="paint5_linear_1_412" x1="107.236" y1="51.5555" x2="130.764" y2="191.118" gradientUnits="userSpaceOnUse">
<stop stop-color="#D5B3FB"/>
<stop offset="1" stop-color="#A075E8"/>
</linearGradient>
<radialGradient id="paint6_radial_1_412" cx="0" cy="0" r="1" gradientTransform="matrix(-50.763 61.1907 -240.437 11.3072 127.882 91.792)" gradientUnits="userSpaceOnUse">
<stop stop-color="#C594F9"/>
<stop offset="1" stop-color="#875ECF"/>
</radialGradient>
</defs>
</svg>
