<svg width="256" height="256" viewBox="0 0 256 256" fill="none" xmlns="http://www.w3.org/2000/svg">
<path d="M107.253 25.7805C84.1646 29.8871 65.1939 40.4045 50.3406 57.3325C42.7646 65.9565 38.8926 74.7085 38.4126 85.8125C38.0019 95.4338 39.0419 104.706 41.5326 113.628" stroke="#A59EA1" stroke-width="2"/>
<path d="M41.5324 113.628L43.8524 120.668" stroke="#9F999D" stroke-width="2"/>
<path d="M43.8525 120.668C36.1405 124.74 35.3725 136.788 38.5805 143.748C42.2445 151.7 51.9565 157.556 60.9645 154.172C61.0779 154.131 61.2023 154.131 61.3142 154.174C61.4262 154.217 61.518 154.299 61.5725 154.404C72.1485 174.492 87.8525 184.596 109.101 190.188C109.204 190.214 109.293 190.277 109.351 190.366C109.409 190.454 109.431 190.562 109.413 190.667C109.395 190.772 109.338 190.867 109.253 190.934C109.169 191.001 109.063 191.035 108.957 191.028C107.709 190.938 106.717 191.122 105.981 191.58" stroke="#FFE3D3" stroke-width="2"/>
<path d="M105.98 191.58C91.7964 193.364 77.2764 199.676 73.2124 214.356C73.1363 214.623 73.1661 214.91 73.2958 215.156C73.4254 215.401 73.6448 215.588 73.9084 215.676L81.5324 218.276" stroke="#9BADC5" stroke-width="2"/>
<path d="M160.997 194.14L154.269 192.284" stroke="#92A7B9" stroke-width="2"/>
<path d="M154.269 192.284L144.653 190.692" stroke="#FDC6BC" stroke-width="2"/>
<path d="M144.653 190.692L153.045 188.54" stroke="#FFE3D3" stroke-width="2"/>
<path d="M153.045 188.54C170.645 183.084 185.757 171.772 194.269 155.204C194.4 154.952 194.617 154.757 194.881 154.654C195.144 154.55 195.436 154.547 195.701 154.644C203.029 157.348 211.341 152.884 215.597 146.924C221.581 138.564 220.573 127.836 212.685 120.868" stroke="#FDD4C5" stroke-width="2"/>
<path d="M212.685 120.868C216.669 109.785 218.333 98.356 217.677 86.58C216.869 71.956 209.517 61.06 199.477 51.78C183.546 37.06 164.663 28.1774 142.829 25.132" stroke="#969197" stroke-width="2"/>
<path d="M142.829 25.1323C130.919 23.4309 119.061 23.6469 107.253 25.7802" stroke="#9F999D" stroke-width="2"/>
<path d="M142.829 25.132C142.834 25.3614 142.901 25.604 143.029 25.86C143.082 25.9728 143.164 26.0701 143.266 26.1429C143.368 26.2157 143.487 26.2615 143.613 26.276C148.821 26.828 153.213 27.788 157.765 30.596C171.813 39.228 186.445 55.028 188.317 72.236C189.053 78.988 186.005 84.94 178.429 84.196C174.989 83.86 172.141 81.844 167.293 82.836C165.453 83.212 163.109 84.54 160.445 84.404C160.183 84.3934 159.93 84.4387 159.685 84.54C158.106 85.2334 156.525 85.3907 154.941 85.012C152.005 84.316 151.445 80.908 147.685 84.292C144.287 87.3534 139.962 88.1934 134.709 86.812" stroke="#362C36" stroke-width="2"/>
<path d="M134.708 86.8123L131.044 84.3723C130.833 84.2326 130.586 84.1588 130.334 84.1602C130.082 84.1616 129.836 84.2383 129.628 84.3803C121.06 90.1323 116.3 90.6683 108.1 83.8123C107.908 83.652 107.665 83.5655 107.416 83.5684C107.166 83.5714 106.927 83.6635 106.74 83.8283C101.636 88.3403 97.7724 92.6923 90.6124 88.3643C89.1938 87.5056 87.7698 86.9936 86.3404 86.8283C86.0111 86.7923 85.6778 86.8461 85.3752 86.984C85.0726 87.1219 84.8119 87.3389 84.6204 87.6123C80.0124 94.2843 75.9004 98.8443 66.9084 97.9243C66.6258 97.8976 66.4124 98.0096 66.2684 98.2603L64.3484 101.596" stroke="#9D6E64" stroke-width="2"/>
<path d="M64.3487 101.596C60.4821 109.649 58.4127 118.191 58.1407 127.22C58.0927 128.756 57.5887 130.516 57.3487 132.06C57.3007 132.369 57.1327 132.468 56.8447 132.356C54.5727 131.5 52.0447 125.66 50.3567 122.316C48.9087 119.452 46.4047 120.084 43.8527 120.668" stroke="#9F7D72" stroke-width="2"/>
<path d="M41.5324 113.628C42.4338 113.527 43.0711 114.292 43.4444 115.924C43.4807 116.09 43.5722 116.239 43.7041 116.345C43.836 116.452 44.0006 116.511 44.1711 116.512C44.3416 116.512 44.508 116.456 44.6433 116.351C44.7786 116.245 44.8748 116.098 44.9164 115.932C45.7591 112.492 47.0764 109.351 48.8684 106.508C53.0231 99.9215 57.0418 93.2602 60.9244 86.5242C68.6924 73.0362 77.9644 68.9722 92.8924 65.0682C113.524 59.6682 102.396 36.3882 118.412 27.9082C118.647 27.7855 118.778 27.5935 118.804 27.3322C119.188 23.4922 108.356 28.0042 107.252 25.7802" stroke="#453840" stroke-width="2"/>
<path d="M212.685 120.868C206.221 118.132 204.261 124.188 202.365 129.172C202.165 129.684 201.629 130.18 201.205 130.436C201.113 130.491 201.01 130.523 200.904 130.529C200.798 130.536 200.692 130.516 200.595 130.473C200.497 130.43 200.412 130.364 200.345 130.281C200.279 130.198 200.233 130.101 200.213 129.996C199.343 125.751 198.706 121.463 198.301 117.132C197.917 113.036 196.653 110.892 193.365 108.804C193.114 108.65 192.925 108.439 192.797 108.172C191.453 105.458 190.634 102.586 190.341 99.5563C190.3 99.1255 190.097 98.7262 189.771 98.4395C189.446 98.1528 189.023 98 188.589 98.0123C178.837 98.3403 177.221 95.3243 173.069 87.4283C172.878 87.0634 172.565 86.7767 172.186 86.6175C171.806 86.4583 171.383 86.4367 170.989 86.5563C166.517 87.8923 162.749 91.3723 157.733 89.5083C154.629 88.3563 152.061 81.7003 148.517 84.6523C144.138 88.3056 139.535 89.0256 134.709 86.8123" stroke="#94675D" stroke-width="2"/>
<path d="M176.573 106.108C170.359 99.3508 162.77 96.1961 153.805 96.6441C145.341 97.0681 146.277 107.708 153.261 107.612C153.981 107.601 155.517 107.199 157.869 106.404" stroke="#998279" stroke-width="2"/>
<path d="M173.693 123.036C171.895 120.844 169.738 119.372 167.221 118.62C166.943 118.54 166.666 118.546 166.389 118.636L165.029 119.092C164.773 119.178 164.511 119.218 164.245 119.212C161.914 119.143 160.573 119.62 160.221 120.644" stroke="#FFE3D3" stroke-width="2"/>
<path d="M160.22 120.644C143.548 132.132 159.668 159.74 171.476 143.756" stroke="#8A6D60" stroke-width="2"/>
<path d="M171.477 143.756C171.823 144.034 172.349 144.228 173.053 144.34" stroke="#FFE3D3" stroke-width="2"/>
<path d="M171.061 149.684C165.805 150.948 155.141 158.156 163.301 163.98C166.319 166.14 169.951 166.703 174.197 165.668" stroke="#FEAB90" stroke-width="2"/>
<path d="M144.652 190.692L142.132 190.972" stroke="#FEAB90" stroke-width="2"/>
<path d="M142.132 190.972C133.183 192.034 124.21 192.063 115.213 191.06" stroke="#FB937E" stroke-width="2"/>
<path d="M115.213 191.06L110.285 190.884C110.029 190.873 109.813 190.956 109.637 191.132C109.018 191.745 108.333 192.076 107.581 192.124C107.348 192.139 107.127 192.228 106.949 192.379C106.771 192.529 106.646 192.732 106.593 192.959C106.539 193.185 106.559 193.423 106.651 193.637C106.742 193.851 106.9 194.03 107.101 194.148C113.239 197.764 119.666 201.337 126.381 204.868C127.975 205.705 131.234 208.54 136.157 213.372" stroke="#FEAB90" stroke-width="2"/>
<path d="M136.156 213.372C130.252 214.625 124.111 214.367 117.732 212.596" stroke="#938C8D" stroke-width="2"/>
<path d="M117.733 212.596C110.613 210.372 102.389 204.364 101.853 196.348C101.757 194.919 102.063 193.876 102.773 193.22C103.509 192.543 104.578 191.996 105.981 191.58" stroke="#9B9199" stroke-width="2"/>
<path d="M153.044 188.54C152.794 188.428 152.58 188.212 152.404 187.892C152.282 187.674 152.34 187.522 152.58 187.436C162.852 183.959 170.319 177.324 174.98 167.532C175.428 166.588 175.116 166.02 174.196 165.668" stroke="#FDB899" stroke-width="2"/>
<path d="M174.197 165.668C181.309 164.068 188.285 158.764 189.581 151.26C189.842 149.762 189.255 148.927 187.821 148.756C182.205 148.095 176.618 148.404 171.061 149.684" stroke="#FC9C82" stroke-width="2"/>
<path d="M171.061 149.684C170.597 147.626 171.261 145.844 173.053 144.34" stroke="#FDB899" stroke-width="2"/>
<path d="M173.053 144.34C177.479 137.087 177.693 129.986 173.693 123.036" stroke="#FDD4C5" stroke-width="2"/>
<path d="M173.693 123.036C172.501 118.3 170.573 117.3 166.461 115.268C166.263 115.172 166.186 115.018 166.229 114.804C166.301 114.476 162.381 111.46 161.789 110.892C160.205 109.38 157.605 109.972 156.493 108.404C156.327 108.17 156.375 107.988 156.637 107.86C157.319 107.519 157.73 107.034 157.869 106.404" stroke="#FDB899" stroke-width="2"/>
<path d="M157.869 106.404C165.133 105.58 171.565 109.884 177.685 113.436C178.794 114.082 179.533 113.788 179.901 112.556C180.429 110.78 177.813 107.66 176.573 106.108" stroke="#97736B" stroke-width="2"/>
<path d="M176.573 106.108C176.354 105.383 175.914 104.788 175.253 104.324C175.045 104.18 174.935 103.978 174.925 103.716C174.837 101.636 167.117 98.1163 165.845 97.5483C163.365 96.4363 159.741 95.9803 156.749 94.4283C156.69 94.3963 156.653 94.3536 156.637 94.3003C156.626 94.2736 156.621 94.2443 156.621 94.2123C156.605 94.0789 156.549 93.9963 156.453 93.9643C150.093 91.6443 142.861 94.7563 137.253 92.0043C135.861 91.3216 134.218 90.3136 132.325 88.9803C132.101 88.8256 131.863 88.8016 131.613 88.9083C127.101 90.8363 124.621 93.5323 119.301 93.5643C115.213 93.5803 111.989 90.6523 107.829 91.5563C105.034 92.1589 102.442 93.295 100.053 94.9643C99.9886 95.0016 99.986 95.0469 100.045 95.1003L100.213 95.2443C100.277 95.2976 100.269 95.3349 100.189 95.3563C97.458 96.0869 95.1806 95.5456 93.3566 93.7323C88.7966 89.1883 83.6926 96.5643 79.8366 98.7243C77.602 99.9776 75.242 100.943 72.7566 101.62C66.4846 103.316 64.6846 105.868 62.1646 111.716C62.162 111.725 62.1578 111.732 62.1521 111.739C62.1465 111.746 62.1396 111.752 62.1318 111.756C62.124 111.76 62.1154 111.762 62.1067 111.763C62.0979 111.764 62.089 111.763 62.0806 111.76C62.0722 111.758 62.0644 111.753 62.0577 111.748C62.0509 111.742 62.0453 111.735 62.0412 111.727C62.0372 111.72 62.0347 111.711 62.0339 111.702C62.0331 111.694 62.034 111.685 62.0366 111.676C62.618 108.375 63.5646 105.25 64.8766 102.3C64.9886 102.044 64.93 101.836 64.7006 101.676C64.6046 101.607 64.4873 101.58 64.3486 101.596" stroke="#FDB899" stroke-width="2"/>
<path d="M115.213 191.06C120.837 202.468 136.18 200.764 142.132 190.972" stroke="#FA7667" stroke-width="2"/>
<path d="M154.269 192.284C156.357 203.756 146.317 211.308 136.157 213.372" stroke="#916F76" stroke-width="2"/>
<path d="M117.732 212.596C120.004 213.935 122.634 214.764 125.62 215.084C125.877 215.115 126.118 215.218 126.316 215.38L136.668 224.084C136.876 224.255 136.954 224.476 136.9 224.748L136.644 226.1" stroke="#2F567F" stroke-width="2"/>
<path d="M136.644 226.1C116.988 227.084 99.8124 223.956 81.5324 218.276" stroke="#839BBA" stroke-width="2"/>
<path d="M171.477 143.756C173.226 140.999 173.983 137.895 173.749 134.444C173.077 124.652 168.567 120.052 160.221 120.644" stroke="#89898C" stroke-width="2"/>
<path d="M160.997 194.14C169.805 197.972 179.925 204.484 180.861 215.228C180.882 215.511 180.762 215.708 180.501 215.82C166.522 221.852 151.903 225.279 136.645 226.1" stroke="#7B96AE" stroke-width="2"/>
<path d="M46.7325 87.9243C52.0125 91.9403 57.0605 84.1563 60.2925 79.7163C68.7885 68.0363 77.4285 56.0443 87.0205 45.2363C87.6338 44.5536 88.2205 43.7563 88.7805 42.8443C88.8434 42.744 88.8838 42.6307 88.8989 42.512C88.9141 42.3933 88.9037 42.272 88.8685 42.1563C86.7485 35.7083 73.0925 46.8923 70.1085 49.3163C62.3112 55.6469 55.6498 63.0443 50.1245 71.5083C47.4845 75.5483 42.5005 84.7003 46.7325 87.9243Z" stroke="#574850" stroke-width="2"/>
<path d="M205.181 127.428L204.605 127.772C204.402 127.892 204.242 128.071 204.149 128.284C202.189 132.796 199.069 141.54 200.029 146.724C200.077 146.975 200.194 147.183 200.381 147.348C205.205 151.74 212.117 143.444 213.541 139.364C215.053 135.02 214.517 125.404 208.045 125.396C207.047 125.396 206.215 125.951 205.549 127.06C205.459 127.212 205.333 127.339 205.181 127.428Z" stroke="#FC9C82" stroke-width="2"/>
<path d="M78.7966 113.948C80.5166 113.988 86.1886 109.804 89.5726 108.196C93.1832 106.473 97.0259 106.164 101.101 107.268C111.957 110.204 112.565 96.0041 101.829 96.6361C92.5166 97.1881 80.6686 102.588 77.5166 112.132C77.4491 112.337 77.4306 112.555 77.4624 112.769C77.4943 112.982 77.5756 113.185 77.7 113.362C77.8244 113.538 77.9884 113.683 78.1788 113.785C78.3692 113.887 78.5807 113.943 78.7966 113.948Z" stroke="#998279" stroke-width="2"/>
<path d="M86.7004 144.636C90.7431 148.385 94.5644 149.193 98.1644 147.06C104.436 143.332 105.9 135.084 103.46 128.372C102.298 125.183 100.028 122.601 96.6524 120.628" stroke="#8A6D60" stroke-width="2"/>
<path d="M96.6524 120.628C91.5697 119.167 87.6417 120.012 84.8684 123.164C82.6124 125.735 81.4844 129.047 81.4844 133.1C81.4844 137.618 83.223 141.463 86.7004 144.636" stroke="#FFE3D3" stroke-width="2"/>
<path d="M96.6525 120.628C93.0845 120.399 90.4231 121.282 88.6685 123.276C83.1965 129.5 82.5405 136.62 86.7005 144.636" stroke="#89898C" stroke-width="2"/>
<path d="M47.1724 146.076C49.4604 148.081 51.839 148.839 54.3084 148.348C56.1084 147.996 56.7484 146.524 56.4124 144.836C55.7884 141.66 52.4444 123.756 46.9484 125.644C45.167 126.257 43.999 127.132 43.4444 128.268C40.1377 135.063 41.3804 140.999 47.1724 146.076Z" stroke="#FEAB90" stroke-width="2"/>
<path d="M130.477 150.004C130.21 149.855 129.887 149.793 129.509 149.82C129.247 149.841 129.061 149.969 128.949 150.204C128.426 151.287 127.543 151.943 126.301 152.172C126.039 152.225 125.853 152.132 125.741 151.892L125.493 151.38C125.428 151.238 125.317 151.124 125.177 151.056C125.038 150.988 124.879 150.971 124.727 151.008C124.575 151.044 124.441 151.133 124.345 151.257C124.25 151.382 124.2 151.536 124.205 151.692C124.237 153.575 124.631 154.719 125.389 155.124" stroke="#FFCCAD" stroke-width="2"/>
<path d="M125.389 155.124C125.042 156.004 125.319 156.647 126.221 157.052C130.117 158.796 133.125 156.34 134.469 152.748C135.786 149.239 135.037 146.058 132.221 143.204C131.517 142.49 130.738 142.463 129.885 143.124C129.803 143.186 129.748 143.278 129.733 143.38C129.718 143.482 129.744 143.585 129.805 143.668C131.245 145.599 131.469 147.711 130.477 150.004" stroke="#FDB899" stroke-width="2"/>
<path d="M125.389 155.124C127.901 154.308 129.597 152.602 130.477 150.004" stroke="#FDBD9F" stroke-width="2"/>
<path d="M70.3966 153.044C67.9726 163.748 78.9326 168.356 87.6446 166.388C92.9566 165.188 98.8206 160.972 93.2366 155.212C87.3699 149.164 80.5273 147.513 72.7086 150.26C71.5166 150.676 70.6526 151.916 70.3966 153.044Z" stroke="#FEAB90" stroke-width="2"/>
<path d="M114.069 177.508C122.25 181.556 130.578 181.639 139.053 177.756" stroke="#FEAB90" stroke-width="2"/>
<path d="M139.052 177.756C142.791 176.594 146.178 174.743 149.212 172.204C151.996 169.884 154.636 165.436 153.212 161.668C153.166 161.546 153.082 161.442 152.971 161.371C152.86 161.301 152.728 161.267 152.596 161.276C151.828 161.335 151.084 161.495 150.364 161.756C134.716 167.383 118.967 167.37 103.116 161.716C102.951 161.658 102.773 161.638 102.599 161.66C102.424 161.682 102.257 161.744 102.111 161.842C101.965 161.94 101.844 162.071 101.757 162.224C101.671 162.377 101.621 162.549 101.612 162.724C101.436 166.244 102.559 169.298 104.98 171.884C107.012 174.055 110.042 175.93 114.068 177.508" stroke="#907166" stroke-width="2"/>
<path d="M139.053 177.756C137.063 175.596 134.653 174.236 131.821 173.676C127.261 172.772 115.501 171.748 114.069 177.508" stroke="#8F554F" stroke-width="2"/>
<path d="M163.181 137.119C163.823 137.053 164.41 136.708 164.812 136.159C165.215 135.61 165.4 134.902 165.328 134.191C165.256 133.479 164.932 132.823 164.427 132.366C163.922 131.909 163.278 131.689 162.636 131.754C161.994 131.819 161.408 132.164 161.005 132.714C160.602 133.263 160.417 133.971 160.489 134.682C160.561 135.393 160.886 136.05 161.39 136.507C161.895 136.964 162.539 137.184 163.181 137.119Z" stroke="#89898C" stroke-width="2"/>
<path d="M94.3591 137.226C94.6711 137.263 94.9882 137.229 95.2924 137.127C95.5966 137.025 95.8819 136.857 96.1319 136.632C96.382 136.407 96.592 136.13 96.7499 135.816C96.9078 135.502 97.0105 135.158 97.0522 134.803C97.1363 134.087 96.9667 133.37 96.5807 132.811C96.1947 132.253 95.6239 131.897 94.9938 131.823C94.6819 131.786 94.3647 131.82 94.0605 131.922C93.7564 132.024 93.4711 132.192 93.221 132.417C92.9709 132.642 92.761 132.919 92.6031 133.233C92.4452 133.547 92.3425 133.891 92.3008 134.245C92.2166 134.962 92.3862 135.678 92.7722 136.237C93.1582 136.796 93.729 137.152 94.3591 137.226Z" stroke="#89898C" stroke-width="2"/>
<path d="M142.828 25.1323C142.834 25.3616 142.9 25.6043 143.028 25.8603C143.082 25.973 143.164 26.0703 143.266 26.1431C143.368 26.2159 143.487 26.2617 143.612 26.2762C148.82 26.8282 153.212 27.7882 157.764 30.5962C171.812 39.2282 186.444 55.0283 188.316 72.2363C189.052 78.9883 186.004 84.9402 178.428 84.1962C174.988 83.8602 172.14 81.8443 167.292 82.8363C165.452 83.2123 163.108 84.5402 160.444 84.4042C160.183 84.3936 159.93 84.4389 159.684 84.5403C158.106 85.2336 156.524 85.3909 154.94 85.0123C152.004 84.3163 151.444 80.9082 147.684 84.2922C144.287 87.3536 139.962 88.1936 134.708 86.8123L131.044 84.3722C130.833 84.2326 130.586 84.1588 130.334 84.1602C130.082 84.1616 129.836 84.2382 129.628 84.3802C121.06 90.1322 116.3 90.6683 108.1 83.8123C107.908 83.652 107.665 83.5655 107.416 83.5684C107.166 83.5713 106.927 83.6635 106.74 83.8282C101.636 88.3402 97.7724 92.6923 90.6124 88.3643C89.1938 87.5056 87.7698 86.9936 86.3404 86.8282C86.0111 86.7923 85.6777 86.846 85.3752 86.984C85.0726 87.1219 84.8119 87.3389 84.6204 87.6123C80.0124 94.2843 75.9004 98.8442 66.9084 97.9242C66.6258 97.8976 66.4124 98.0096 66.2684 98.2603L64.3484 101.596C60.4818 109.65 58.4124 118.191 58.1404 127.22C58.0924 128.756 57.5884 130.516 57.3484 132.06C57.3004 132.37 57.1324 132.468 56.8444 132.356C54.5724 131.5 52.0444 125.66 50.3564 122.316C48.9084 119.452 46.4044 120.084 43.8524 120.668L41.5324 113.628C42.4338 113.527 43.0711 114.292 43.4444 115.924C43.4807 116.09 43.5722 116.239 43.7041 116.346C43.836 116.452 44.0006 116.511 44.1711 116.512C44.3416 116.513 44.508 116.456 44.6433 116.351C44.7786 116.245 44.8748 116.098 44.9164 115.932C45.7591 112.492 47.0764 109.351 48.8684 106.508C53.0231 99.9216 57.0418 93.2602 60.9244 86.5242C68.6924 73.0362 77.9644 68.9722 92.8924 65.0682C113.524 59.6682 102.396 36.3883 118.412 27.9083C118.647 27.7856 118.778 27.5936 118.804 27.3323C119.188 23.4923 108.356 28.0042 107.252 25.7802C119.06 23.6469 130.919 23.4309 142.828 25.1323Z" fill="#2D3540"/>
<path d="M142.829 25.132C164.663 28.1774 183.546 37.06 199.477 51.78C209.517 61.06 216.869 71.956 217.677 86.58C218.333 98.356 216.669 109.785 212.685 120.868C206.221 118.132 204.261 124.188 202.365 129.172C202.165 129.684 201.629 130.18 201.205 130.436C201.113 130.491 201.01 130.522 200.904 130.529C200.798 130.535 200.692 130.516 200.595 130.473C200.497 130.43 200.412 130.364 200.345 130.281C200.279 130.198 200.233 130.1 200.213 129.996C199.343 125.751 198.706 121.463 198.301 117.132C197.917 113.036 196.653 110.892 193.365 108.804C193.114 108.649 192.925 108.439 192.797 108.172C191.453 105.457 190.634 102.585 190.341 99.556C190.3 99.1253 190.097 98.726 189.771 98.4393C189.446 98.1525 189.023 97.9998 188.589 98.012C178.837 98.34 177.221 95.324 173.069 87.428C172.878 87.0632 172.565 86.7765 172.186 86.6173C171.806 86.4581 171.383 86.4364 170.989 86.556C166.517 87.892 162.749 91.372 157.733 89.508C154.629 88.356 152.061 81.7 148.517 84.652C144.138 88.3054 139.535 89.0254 134.709 86.812C139.962 88.1934 144.287 87.3534 147.685 84.292C151.445 80.908 152.005 84.316 154.941 85.012C156.525 85.3907 158.106 85.2334 159.685 84.54C159.93 84.4387 160.183 84.3934 160.445 84.404C163.109 84.54 165.453 83.212 167.293 82.836C172.141 81.844 174.989 83.86 178.429 84.196C186.005 84.94 189.053 78.988 188.317 72.236C186.445 55.028 171.813 39.228 157.765 30.596C153.213 27.788 148.821 26.828 143.613 26.276C143.487 26.2615 143.368 26.2157 143.266 26.1429C143.164 26.0701 143.082 25.9728 143.029 25.86C142.901 25.604 142.834 25.3614 142.829 25.132Z" fill="#1E242B"/>
<path d="M107.253 25.7802C108.357 28.0042 119.189 23.4922 118.805 27.3322C118.778 27.5935 118.647 27.7855 118.413 27.9082C102.397 36.3882 113.525 59.6682 92.8926 65.0682C77.9646 68.9722 68.6926 73.0362 60.9246 86.5242C57.0419 93.2602 53.0233 99.9215 48.8686 106.508C47.0766 109.351 45.7593 112.492 44.9166 115.932C44.875 116.098 44.7787 116.245 44.6434 116.351C44.5081 116.456 44.3417 116.512 44.1712 116.512C44.0008 116.511 43.8362 116.452 43.7043 116.345C43.5724 116.239 43.4809 116.09 43.4446 115.924C43.0713 114.292 42.4339 113.527 41.5326 113.628C39.0419 104.706 38.0019 95.4335 38.4126 85.8122C38.8926 74.7082 42.7646 65.9562 50.3406 57.3322C65.1939 40.4042 84.1646 29.8869 107.253 25.7802ZM46.7326 87.9242C52.0126 91.9402 57.0606 84.1562 60.2926 79.7162C68.7886 68.0362 77.4286 56.0442 87.0206 45.2362C87.6339 44.5535 88.2206 43.7562 88.7806 42.8442C88.8434 42.7439 88.8838 42.6306 88.899 42.5119C88.9142 42.3932 88.9038 42.2719 88.8686 42.1562C86.7486 35.7082 73.0926 46.8922 70.1086 49.3162C62.3113 55.6469 55.6499 63.0442 50.1246 71.5082C47.4846 75.5482 42.5006 84.7002 46.7326 87.9242Z" fill="#3D444D"/>
<path d="M46.7325 87.9243C42.5005 84.7003 47.4845 75.5483 50.1245 71.5083C55.6498 63.0443 62.3112 55.6469 70.1085 49.3163C73.0925 46.8923 86.7485 35.7083 88.8685 42.1563C88.9037 42.272 88.9141 42.3933 88.8989 42.512C88.8838 42.6307 88.8434 42.744 88.7805 42.8443C88.2205 43.7563 87.6339 44.5536 87.0205 45.2363C77.4285 56.0443 68.7885 68.0363 60.2925 79.7163C57.0605 84.1563 52.0125 91.9403 46.7325 87.9243Z" fill="#636B71"/>
<path d="M134.709 86.8123C139.535 89.0256 144.138 88.3056 148.517 84.6523C152.061 81.7003 154.629 88.3563 157.733 89.5083C162.749 91.3723 166.517 87.8923 170.989 86.5563C171.383 86.4367 171.806 86.4583 172.186 86.6175C172.565 86.7767 172.878 87.0635 173.069 87.4283C177.221 95.3243 178.837 98.3403 188.589 98.0123C189.023 98 189.446 98.1528 189.771 98.4395C190.097 98.7262 190.3 99.1255 190.341 99.5563C190.634 102.586 191.453 105.458 192.797 108.172C192.925 108.439 193.114 108.65 193.365 108.804C196.653 110.892 197.917 113.036 198.301 117.132C198.706 121.463 199.343 125.751 200.213 129.996C200.233 130.101 200.279 130.198 200.345 130.281C200.412 130.364 200.497 130.43 200.595 130.473C200.692 130.517 200.798 130.536 200.904 130.529C201.01 130.523 201.113 130.491 201.205 130.436C201.629 130.18 202.165 129.684 202.365 129.172C204.261 124.188 206.221 118.132 212.685 120.868C220.573 127.836 221.581 138.564 215.597 146.924C211.341 152.884 203.029 157.348 195.701 154.644C195.436 154.547 195.144 154.55 194.881 154.653C194.617 154.757 194.4 154.952 194.269 155.204C185.757 171.772 170.645 183.084 153.045 188.54C152.794 188.428 152.581 188.212 152.405 187.892C152.282 187.674 152.341 187.522 152.581 187.436C162.853 183.959 170.319 177.324 174.981 167.532C175.429 166.588 175.117 166.02 174.197 165.668C181.309 164.068 188.285 158.764 189.581 151.26C189.842 149.762 189.255 148.927 187.821 148.756C182.205 148.095 176.618 148.404 171.061 149.684C170.597 147.626 171.261 145.844 173.053 144.34C177.479 137.087 177.693 129.986 173.693 123.036C172.501 118.3 170.573 117.3 166.461 115.268C166.263 115.172 166.186 115.018 166.229 114.804C166.301 114.476 162.381 111.46 161.789 110.892C160.205 109.38 157.605 109.972 156.493 108.404C156.327 108.17 156.375 107.988 156.637 107.86C157.319 107.519 157.73 107.034 157.869 106.404C165.133 105.58 171.565 109.884 177.685 113.436C178.794 114.082 179.533 113.788 179.901 112.556C180.429 110.78 177.813 107.66 176.573 106.108C176.354 105.383 175.914 104.788 175.253 104.324C175.045 104.18 174.935 103.978 174.925 103.716C174.837 101.636 167.117 98.1163 165.845 97.5483C163.365 96.4363 159.741 95.9803 156.749 94.4283C156.69 94.3963 156.653 94.3536 156.637 94.3003C156.626 94.2736 156.621 94.2443 156.621 94.2123C156.605 94.0789 156.549 93.9963 156.453 93.9643C150.093 91.6443 142.861 94.7563 137.253 92.0043C135.861 91.3216 134.218 90.3136 132.325 88.9803C132.101 88.8256 131.863 88.8016 131.613 88.9083C127.101 90.8363 124.621 93.5323 119.301 93.5643C115.213 93.5803 111.989 90.6523 107.829 91.5563C105.034 92.1589 102.442 93.2949 100.053 94.9643C99.9886 95.0016 99.986 95.0469 100.045 95.1003L100.213 95.2443C100.277 95.2976 100.269 95.3349 100.189 95.3563C97.458 96.0869 95.1806 95.5456 93.3566 93.7323C88.7966 89.1883 83.6926 96.5643 79.8366 98.7243C77.602 99.9776 75.242 100.943 72.7566 101.62C66.4846 103.316 64.6846 105.868 62.1646 111.716C62.162 111.725 62.1578 111.732 62.1521 111.739C62.1465 111.746 62.1396 111.752 62.1318 111.756C62.124 111.76 62.1154 111.762 62.1067 111.763C62.0979 111.764 62.089 111.763 62.0806 111.76C62.0722 111.758 62.0644 111.753 62.0577 111.748C62.0509 111.742 62.0453 111.735 62.0412 111.727C62.0372 111.72 62.0347 111.711 62.0339 111.702C62.0331 111.694 62.034 111.685 62.0366 111.676C62.618 108.375 63.5646 105.25 64.8766 102.3C64.9886 102.044 64.93 101.836 64.7006 101.676C64.6046 101.607 64.4873 101.58 64.3486 101.596L66.2686 98.2603C66.4126 98.0096 66.626 97.8976 66.9086 97.9243C75.9006 98.8443 80.0126 94.2843 84.6206 87.6123C84.8121 87.3389 85.0728 87.1219 85.3754 86.984C85.678 86.8461 86.0113 86.7923 86.3406 86.8283C87.77 86.9936 89.194 87.5056 90.6126 88.3643C97.7726 92.6923 101.637 88.3403 106.741 83.8283C106.927 83.6635 107.166 83.5714 107.416 83.5684C107.665 83.5655 107.908 83.652 108.101 83.8123C116.301 90.6683 121.061 90.1323 129.629 84.3803C129.836 84.2383 130.082 84.1616 130.334 84.1602C130.586 84.1588 130.834 84.2326 131.045 84.3723L134.709 86.8123ZM205.181 127.428L204.605 127.772C204.402 127.892 204.242 128.071 204.149 128.284C202.189 132.796 199.069 141.54 200.029 146.724C200.077 146.975 200.194 147.183 200.381 147.348C205.205 151.74 212.117 143.444 213.541 139.364C215.053 135.02 214.517 125.404 208.045 125.396C207.047 125.396 206.215 125.951 205.549 127.06C205.459 127.212 205.333 127.339 205.181 127.428Z" fill="#FBA98B"/>
<path d="M176.573 106.108C170.359 99.3509 162.77 96.1963 153.805 96.6443C145.341 97.0683 146.277 107.708 153.261 107.612C153.981 107.602 155.517 107.199 157.869 106.404C157.73 107.034 157.319 107.519 156.637 107.86C156.375 107.988 156.327 108.17 156.493 108.404C157.605 109.972 160.205 109.38 161.789 110.892C162.381 111.46 166.301 114.476 166.229 114.804C166.186 115.018 166.263 115.172 166.461 115.268C170.573 117.3 172.501 118.3 173.693 123.036C171.895 120.844 169.738 119.372 167.221 118.62C166.943 118.54 166.666 118.546 166.389 118.636L165.029 119.092C164.773 119.178 164.511 119.218 164.245 119.212C161.914 119.143 160.573 119.62 160.221 120.644C143.549 132.132 159.669 159.74 171.477 143.756C171.823 144.034 172.349 144.228 173.053 144.34C171.261 145.844 170.597 147.626 171.061 149.684C165.805 150.948 155.141 158.156 163.301 163.98C166.319 166.14 169.951 166.703 174.197 165.668C175.117 166.02 175.429 166.588 174.981 167.532C170.319 177.324 162.853 183.959 152.581 187.436C152.341 187.522 152.282 187.674 152.405 187.892C152.581 188.212 152.794 188.428 153.045 188.54L144.653 190.692L142.133 190.972C133.183 192.034 124.21 192.063 115.213 191.06L110.285 190.884C110.029 190.874 109.813 190.956 109.637 191.132C109.018 191.746 108.333 192.076 107.581 192.124C107.348 192.139 107.127 192.229 106.949 192.379C106.771 192.529 106.646 192.732 106.593 192.959C106.539 193.185 106.559 193.423 106.651 193.637C106.742 193.851 106.9 194.03 107.101 194.148C113.239 197.764 119.666 201.338 126.381 204.868C127.975 205.706 131.234 208.54 136.157 213.372C130.253 214.626 124.111 214.367 117.733 212.596C110.613 210.372 102.389 204.364 101.853 196.348C101.757 194.919 102.063 193.876 102.773 193.22C103.509 192.543 104.578 191.996 105.981 191.58C106.717 191.122 107.709 190.938 108.957 191.028C109.063 191.035 109.169 191.001 109.253 190.934C109.338 190.867 109.395 190.772 109.413 190.667C109.431 190.562 109.409 190.454 109.351 190.366C109.293 190.277 109.204 190.214 109.101 190.188C87.8525 184.596 72.1485 174.492 61.5725 154.404C61.518 154.299 61.4262 154.217 61.3142 154.174C61.2023 154.131 61.0779 154.131 60.9645 154.172C51.9565 157.556 42.2445 151.7 38.5805 143.748C35.3725 136.788 36.1405 124.74 43.8525 120.668C46.4045 120.084 48.9085 119.452 50.3565 122.316C52.0445 125.66 54.5725 131.5 56.8445 132.356C57.1325 132.468 57.3005 132.37 57.3485 132.06C57.5885 130.516 58.0925 128.756 58.1405 127.22C58.4125 118.191 60.4819 109.65 64.3485 101.596C64.4872 101.58 64.6045 101.607 64.7005 101.676C64.9299 101.836 64.9885 102.044 64.8765 102.3C63.5645 105.25 62.6179 108.375 62.0365 111.676C62.0339 111.685 62.033 111.694 62.0338 111.702C62.0345 111.711 62.0371 111.72 62.0411 111.727C62.0452 111.735 62.0508 111.742 62.0576 111.748C62.0643 111.753 62.0721 111.758 62.0805 111.76C62.0889 111.763 62.0978 111.764 62.1065 111.763C62.1153 111.762 62.1238 111.76 62.1316 111.756C62.1394 111.752 62.1464 111.746 62.152 111.739C62.1576 111.732 62.1619 111.725 62.1645 111.716C64.6845 105.868 66.4845 103.316 72.7565 101.62C75.2419 100.943 77.6019 99.9776 79.8365 98.7243C83.6925 96.5643 88.7965 89.1883 93.3565 93.7323C95.1805 95.5456 97.4579 96.0869 100.189 95.3563C100.269 95.3349 100.277 95.2976 100.213 95.2443L100.045 95.1003C99.9859 95.0469 99.9885 95.0016 100.053 94.9643C102.442 93.295 105.034 92.1589 107.829 91.5563C111.989 90.6523 115.213 93.5803 119.301 93.5643C124.621 93.5323 127.101 90.8363 131.613 88.9083C131.863 88.8016 132.101 88.8256 132.325 88.9803C134.218 90.3136 135.861 91.3216 137.253 92.0043C142.861 94.7563 150.093 91.6443 156.453 93.9643C156.549 93.9963 156.605 94.0789 156.621 94.2123C156.621 94.2443 156.626 94.2736 156.637 94.3003C156.653 94.3536 156.69 94.3963 156.749 94.4283C159.741 95.9803 163.365 96.4363 165.845 97.5483C167.117 98.1163 174.837 101.636 174.925 103.716C174.935 103.978 175.045 104.18 175.253 104.324C175.914 104.788 176.354 105.383 176.573 106.108ZM78.7965 113.948C80.5165 113.988 86.1885 109.804 89.5725 108.196C93.1832 106.474 97.0259 106.164 101.101 107.268C111.957 110.204 112.565 96.0043 101.829 96.6363C92.5165 97.1883 80.6685 102.588 77.5165 112.132C77.4491 112.337 77.4305 112.555 77.4624 112.769C77.4942 112.982 77.5756 113.186 77.7 113.362C77.8244 113.539 77.9883 113.683 78.1787 113.785C78.3691 113.887 78.5807 113.943 78.7965 113.948ZM86.7005 144.636C90.7432 148.386 94.5645 149.194 98.1645 147.06C104.437 143.332 105.901 135.084 103.461 128.372C102.298 125.183 100.029 122.602 96.6525 120.628C91.5699 119.167 87.6419 120.012 84.8685 123.164C82.6125 125.735 81.4845 129.047 81.4845 133.1C81.4845 137.618 83.2232 141.463 86.7005 144.636ZM47.1725 146.076C49.4605 148.082 51.8392 148.839 54.3085 148.348C56.1085 147.996 56.7485 146.524 56.4125 144.836C55.7885 141.66 52.4445 123.756 46.9485 125.644C45.1672 126.258 43.9992 127.132 43.4445 128.268C40.1379 135.063 41.3805 140.999 47.1725 146.076ZM130.477 150.004C130.21 149.855 129.887 149.794 129.509 149.82C129.247 149.842 129.061 149.97 128.949 150.204C128.426 151.287 127.543 151.943 126.301 152.172C126.039 152.226 125.853 152.132 125.741 151.892L125.493 151.38C125.428 151.238 125.317 151.124 125.177 151.056C125.038 150.988 124.879 150.971 124.727 151.008C124.575 151.045 124.441 151.133 124.345 151.258C124.25 151.382 124.2 151.536 124.205 151.692C124.237 153.575 124.631 154.719 125.389 155.124C125.042 156.004 125.319 156.647 126.221 157.052C130.117 158.796 133.125 156.34 134.469 152.748C135.786 149.239 135.037 146.058 132.221 143.204C131.517 142.49 130.738 142.463 129.885 143.124C129.802 143.186 129.748 143.278 129.733 143.38C129.718 143.482 129.744 143.585 129.805 143.668C131.245 145.599 131.469 147.711 130.477 150.004ZM70.3965 153.044C67.9725 163.748 78.9325 168.356 87.6445 166.388C92.9565 165.188 98.8205 160.972 93.2365 155.212C87.3699 149.164 80.5272 147.514 72.7085 150.26C71.5165 150.676 70.6525 151.916 70.3965 153.044ZM114.069 177.508C122.25 181.556 130.578 181.639 139.053 177.756C142.791 176.594 146.178 174.743 149.213 172.204C151.997 169.884 154.637 165.436 153.213 161.668C153.166 161.546 153.082 161.442 152.971 161.371C152.86 161.301 152.729 161.267 152.597 161.276C151.829 161.335 151.085 161.495 150.365 161.756C134.717 167.383 118.967 167.37 103.117 161.716C102.951 161.657 102.773 161.638 102.599 161.66C102.424 161.682 102.257 161.744 102.111 161.842C101.965 161.94 101.844 162.071 101.757 162.224C101.671 162.377 101.621 162.549 101.613 162.724C101.437 166.244 102.559 169.298 104.981 171.884C107.013 174.055 110.042 175.93 114.069 177.508Z" fill="#FFC7A7"/>
<path d="M78.7966 113.948C78.5807 113.943 78.3692 113.887 78.1788 113.785C77.9884 113.683 77.8244 113.538 77.7 113.362C77.5756 113.185 77.4943 112.982 77.4624 112.769C77.4306 112.555 77.4491 112.337 77.5166 112.132C80.6686 102.588 92.5166 97.1881 101.829 96.6361C112.565 96.0041 111.957 110.204 101.101 107.268C97.0259 106.164 93.1832 106.473 89.5726 108.196C86.1886 109.804 80.5166 113.988 78.7966 113.948Z" fill="#333C4A"/>
<path d="M176.573 106.108C177.813 107.66 180.429 110.78 179.901 112.556C179.533 113.788 178.794 114.081 177.685 113.436C171.565 109.884 165.133 105.58 157.869 106.404C155.517 107.199 153.981 107.601 153.261 107.612C146.277 107.708 145.341 97.0681 153.805 96.6441C162.77 96.1961 170.359 99.3508 176.573 106.108Z" fill="#333C4A"/>
<path d="M173.693 123.036C177.693 129.986 177.479 137.087 173.053 144.34C172.349 144.228 171.823 144.034 171.477 143.756C173.226 140.999 173.983 137.895 173.749 134.444C173.077 124.652 168.567 120.052 160.221 120.644C160.573 119.62 161.914 119.143 164.245 119.212C164.511 119.218 164.773 119.178 165.029 119.092L166.389 118.636C166.666 118.546 166.943 118.54 167.221 118.62C169.738 119.372 171.895 120.844 173.693 123.036Z" fill="#FEFEFE"/>
<path d="M96.6524 120.628C93.0844 120.399 90.423 121.282 88.6684 123.276C83.1964 129.5 82.5404 136.62 86.7004 144.636C83.223 141.463 81.4844 137.618 81.4844 133.1C81.4844 129.047 82.6124 125.735 84.8684 123.164C87.6417 120.012 91.5697 119.167 96.6524 120.628Z" fill="#FEFEFE"/>
<path d="M171.476 143.756C159.668 159.74 143.548 132.132 160.22 120.644C168.567 120.052 173.076 124.652 173.748 134.444C173.983 137.895 173.226 140.999 171.476 143.756ZM163.181 137.119C163.823 137.053 164.409 136.708 164.812 136.159C165.215 135.61 165.4 134.902 165.328 134.191C165.256 133.479 164.931 132.823 164.427 132.366C163.922 131.909 163.278 131.689 162.636 131.754C161.994 131.819 161.408 132.165 161.005 132.714C160.602 133.263 160.417 133.971 160.489 134.682C160.561 135.394 160.885 136.05 161.39 136.507C161.895 136.964 162.539 137.184 163.181 137.119Z" fill="#141319"/>
<path d="M96.6525 120.628C100.028 122.602 102.298 125.183 103.46 128.372C105.9 135.084 104.436 143.332 98.1645 147.06C94.5645 149.194 90.7432 148.386 86.7005 144.636C82.5405 136.62 83.1965 129.5 88.6685 123.276C90.4231 121.282 93.0845 120.399 96.6525 120.628ZM94.3591 137.226C94.6711 137.263 94.9882 137.229 95.2924 137.127C95.5966 137.025 95.8819 136.857 96.132 136.632C96.382 136.407 96.592 136.13 96.7499 135.816C96.9078 135.502 97.0105 135.158 97.0522 134.803C97.1363 134.087 96.9667 133.37 96.5807 132.812C96.1947 132.253 95.6239 131.897 94.9938 131.823C94.6819 131.786 94.3647 131.82 94.0605 131.922C93.7564 132.024 93.4711 132.192 93.221 132.417C92.9709 132.642 92.761 132.919 92.6031 133.233C92.4452 133.547 92.3425 133.891 92.3008 134.245C92.2166 134.962 92.3862 135.678 92.7722 136.237C93.1582 136.796 93.7291 137.152 94.3591 137.226Z" fill="#141319"/>
<path d="M47.1724 146.076C41.3804 140.999 40.1377 135.063 43.4444 128.268C43.999 127.132 45.167 126.257 46.9484 125.644C52.4444 123.756 55.7884 141.66 56.4124 144.836C56.7484 146.524 56.1084 147.996 54.3084 148.348C51.839 148.839 49.4604 148.081 47.1724 146.076Z" fill="#FC8E79"/>
<path d="M205.549 127.06C206.215 125.951 207.047 125.396 208.045 125.396C214.517 125.404 215.053 135.02 213.541 139.364C212.117 143.444 205.205 151.74 200.381 147.348C200.194 147.183 200.077 146.975 200.029 146.724C199.069 141.54 202.189 132.796 204.149 128.284C204.242 128.071 204.402 127.892 204.605 127.772L205.181 127.428C205.333 127.339 205.459 127.212 205.549 127.06Z" fill="#FC8E79"/>
<path d="M92.3009 134.245C92.1256 135.737 93.0471 137.072 94.3592 137.226C95.6712 137.38 96.8769 136.295 97.0522 134.803C97.2274 133.311 96.3059 131.977 94.9939 131.823C93.6818 131.669 92.4761 132.753 92.3009 134.245Z" fill="#FEFEFE"/>
<path d="M160.489 134.682C160.639 136.163 161.845 137.254 163.181 137.118C164.517 136.983 165.478 135.672 165.328 134.19C165.177 132.709 163.972 131.618 162.636 131.754C161.3 131.89 160.338 133.201 160.489 134.682Z" fill="#FEFEFE"/>
<path d="M125.389 155.124C127.901 154.308 129.597 152.602 130.477 150.004C131.469 147.711 131.245 145.599 129.805 143.668C129.744 143.585 129.718 143.482 129.733 143.38C129.748 143.278 129.803 143.186 129.885 143.124C130.738 142.463 131.517 142.49 132.221 143.204C135.037 146.058 135.786 149.239 134.469 152.748C133.125 156.34 130.117 158.796 126.221 157.052C125.319 156.647 125.042 156.004 125.389 155.124Z" fill="#FBA98B"/>
<path d="M174.197 165.668C169.951 166.703 166.319 166.14 163.301 163.98C155.141 158.156 165.805 150.948 171.061 149.684C176.618 148.404 182.205 148.095 187.821 148.756C189.255 148.927 189.842 149.762 189.581 151.26C188.285 158.764 181.309 164.068 174.197 165.668Z" fill="#FC8E79"/>
<path d="M87.6446 166.388C78.9326 168.356 67.9726 163.748 70.3966 153.044C70.6526 151.916 71.5166 150.676 72.7086 150.26C80.5273 147.513 87.3699 149.164 93.2366 155.212C98.8206 160.972 92.9566 165.188 87.6446 166.388Z" fill="#FC8E79"/>
<path d="M130.477 150.004C129.597 152.601 127.901 154.308 125.389 155.124C124.631 154.719 124.237 153.575 124.205 151.692C124.2 151.536 124.25 151.382 124.345 151.257C124.441 151.133 124.575 151.044 124.727 151.008C124.879 150.971 125.038 150.988 125.177 151.056C125.317 151.124 125.428 151.238 125.493 151.38L125.741 151.892C125.853 152.132 126.039 152.225 126.301 152.172C127.543 151.943 128.426 151.287 128.949 150.204C129.061 149.969 129.247 149.841 129.509 149.82C129.887 149.793 130.21 149.855 130.477 150.004Z" fill="#FED0B2"/>
<path d="M139.052 177.756C137.063 175.596 134.652 174.236 131.82 173.676C127.26 172.772 115.5 171.748 114.068 177.508C110.042 175.93 107.012 174.055 104.98 171.884C102.559 169.298 101.436 166.244 101.612 162.724C101.621 162.549 101.671 162.377 101.757 162.224C101.844 162.071 101.965 161.94 102.111 161.842C102.257 161.744 102.424 161.682 102.599 161.66C102.773 161.638 102.951 161.658 103.116 161.716C118.967 167.37 134.716 167.383 150.364 161.756C151.084 161.495 151.828 161.335 152.596 161.276C152.728 161.267 152.86 161.301 152.971 161.371C153.082 161.442 153.166 161.546 153.212 161.668C154.636 165.436 151.996 169.884 149.212 172.204C146.178 174.743 142.791 176.594 139.052 177.756Z" fill="#211B24"/>
<path d="M139.052 177.756C130.578 181.639 122.25 181.556 114.068 177.508C115.5 171.748 127.26 172.772 131.82 173.676C134.652 174.236 137.063 175.596 139.052 177.756Z" fill="#FC8E79"/>
<path d="M115.213 191.06C120.837 202.468 136.181 200.764 142.133 190.972L144.653 190.692L154.269 192.284C156.357 203.756 146.317 211.308 136.157 213.372C131.234 208.54 127.975 205.705 126.381 204.868C119.666 201.337 113.239 197.764 107.101 194.148C106.9 194.03 106.742 193.851 106.651 193.637C106.559 193.423 106.539 193.185 106.593 192.959C106.646 192.732 106.771 192.529 106.949 192.379C107.127 192.229 107.348 192.139 107.581 192.124C108.333 192.076 109.018 191.746 109.637 191.132C109.813 190.956 110.029 190.874 110.285 190.884L115.213 191.06Z" fill="#FC8E79"/>
<path d="M115.213 191.06C124.21 192.063 133.183 192.034 142.132 190.972C136.18 200.764 120.837 202.468 115.213 191.06Z" fill="#F75E54"/>
<path d="M105.98 191.58C104.578 191.996 103.508 192.543 102.772 193.22C102.063 193.876 101.756 194.919 101.852 196.348C102.388 204.364 110.612 210.372 117.732 212.596C120.004 213.935 122.634 214.764 125.62 215.084C125.876 215.116 126.118 215.218 126.316 215.38L136.668 224.084C136.876 224.255 136.954 224.476 136.9 224.748L136.644 226.1C116.988 227.084 99.8124 223.956 81.5324 218.276L73.9084 215.676C73.6448 215.588 73.4254 215.402 73.2958 215.156C73.1661 214.91 73.1363 214.624 73.2124 214.356C77.2764 199.676 91.7964 193.364 105.98 191.58Z" fill="#C7C7C7"/>
<path d="M154.268 192.284L160.996 194.14C169.804 197.972 179.924 204.484 180.86 215.228C180.882 215.511 180.762 215.708 180.5 215.82C166.522 221.852 151.903 225.279 136.644 226.1L136.9 224.748C136.954 224.476 136.876 224.255 136.668 224.084L126.316 215.38C126.118 215.218 125.877 215.116 125.62 215.084C122.634 214.764 120.004 213.935 117.732 212.596C124.111 214.367 130.252 214.626 136.156 213.372C146.316 211.308 156.356 203.756 154.268 192.284Z" fill="#9F9F9F"/>
</svg>
